<svg xmlns="http://www.w3.org/2000/svg" width="1536" height="864" viewBox="0 0 1536 864">
<rect width="1536" height="864" fill="#f8f4ee"/>
<rect x="92" y="78" width="1352" height="708" rx="54" fill="#ffffff" opacity="0.78"/>
<circle cx="1260" cy="168" r="96" fill="#d0a73f" opacity="0.28"/>
<circle cx="230" cy="704" r="132" fill="#6f8f72" opacity="0.18"/>
<rect x="250" y="260" width="150" height="300" rx="28" fill="#6f8f72" opacity="0.78"/><circle cx="325" cy="218" r="34" fill="#d0a73f" opacity="0.9"/><rect x="520" y="330" width="150" height="230" rx="28" fill="#d0a73f" opacity="0.78"/><circle cx="595" cy="288" r="34" fill="#5f7ea6" opacity="0.9"/><rect x="790" y="200" width="150" height="360" rx="28" fill="#5f7ea6" opacity="0.78"/><circle cx="865" cy="158" r="34" fill="#6f8f72" opacity="0.9"/><rect x="1060" y="290" width="150" height="270" rx="28" fill="#4a4a4a" opacity="0.78"/><circle cx="1135" cy="248" r="34" fill="#4a4a4a" opacity="0.9"/><path d="M430 390 C485 340 555 340 610 390" fill="none" stroke="#4a4a4a" stroke-width="18" stroke-linecap="round" opacity="0.45"/><path d="M602 390 l-36 -18 l8 40 z" fill="#4a4a4a" opacity="0.45"/><path d="M700 390 C755 340 825 340 880 390" fill="none" stroke="#4a4a4a" stroke-width="18" stroke-linecap="round" opacity="0.45"/><path d="M872 390 l-36 -18 l8 40 z" fill="#4a4a4a" opacity="0.45"/><path d="M970 390 C1025 340 1095 340 1150 390" fill="none" stroke="#4a4a4a" stroke-width="18" stroke-linecap="round" opacity="0.45"/><path d="M1142 390 l-36 -18 l8 40 z" fill="#4a4a4a" opacity="0.45"/><rect x="228" y="164" width="420" height="86" rx="26" fill="#6f8f72" opacity="0.20"/><rect x="710" y="164" width="310" height="86" rx="26" fill="#d0a73f" opacity="0.22"/><rect x="1060" y="164" width="250" height="86" rx="26" fill="#5f7ea6" opacity="0.22"/></svg>