<svg xmlns="http://www.w3.org/2000/svg" width="1024" height="1536" viewBox="0 0 1024 1536">
<rect width="1024" height="1536" fill="#f8faf7"/>
<text x="512" y="60" text-anchor="middle" font-family="Hiragino Sans, Yu Gothic, sans-serif" font-size="30" font-weight="700" fill="#18343b">マンガでわかる！AI株に投資すべきか？</text>
<text x="512" y="96" text-anchor="middle" font-family="Hiragino Sans, Yu Gothic, sans-serif" font-size="18" fill="#667">092 / 結論</text>

<rect x="64" y="110" width="430" height="570" rx="18" fill="#fff7e8" stroke="#1e293b" stroke-width="4"/>
<rect x="88" y="136" width="382" height="92" rx="12" fill="#ffffff" stroke="#94a3b8" stroke-width="2"/>
<text x="106" y="172" font-family="Hiragino Sans, Yu Gothic, sans-serif" font-size="26" font-weight="700" fill="#0f3f46">ミナミ</text>
<text x="106" y="215" font-family="Hiragino Sans, Yu Gothic, sans-serif" font-size="25" fill="#111827">AIって聞くと、全部伸びそうに</text>
<text x="106" y="249" font-family="Hiragino Sans, Yu Gothic, sans-serif" font-size="25" fill="#111827">見えます</text>
<circle cx="279.0" cy="460" r="82" fill="#f5c7a9" stroke="#1f2937" stroke-width="4"/>
<path d="M 197.0 438 Q 279.0 335 361.0 438 L 351.0 384 Q 279.0 315 207.0 384 Z" fill="#262626"/>
<circle cx="251.0" cy="454" r="7" fill="#111827"/><circle cx="307.0" cy="454" r="7" fill="#111827"/>
<path d="M 251.0 498 Q 279.0 518 307.0 498" fill="none" stroke="#111827" stroke-width="5" stroke-linecap="round"/>
<rect x="193.0" y="552" width="172" height="96" rx="24" fill="#25636f"/>
<rect x="530" y="110" width="430" height="570" rx="18" fill="#e8f4ff" stroke="#1e293b" stroke-width="4"/>
<rect x="554" y="136" width="382" height="92" rx="12" fill="#ffffff" stroke="#94a3b8" stroke-width="2"/>
<text x="572" y="172" font-family="Hiragino Sans, Yu Gothic, sans-serif" font-size="26" font-weight="700" fill="#0f3f46">高橋</text>
<text x="572" y="215" font-family="Hiragino Sans, Yu Gothic, sans-serif" font-size="25" fill="#111827">伸びる業界でも、利益を取れる会</text>
<text x="572" y="249" font-family="Hiragino Sans, Yu Gothic, sans-serif" font-size="25" fill="#111827">社は限られる</text>
<circle cx="745.0" cy="460" r="82" fill="#d7b899" stroke="#1f2937" stroke-width="4"/>
<path d="M 663.0 438 Q 745.0 335 827.0 438 L 817.0 384 Q 745.0 315 673.0 384 Z" fill="#475569"/>
<circle cx="717.0" cy="454" r="7" fill="#111827"/><circle cx="773.0" cy="454" r="7" fill="#111827"/>
<path d="M 717.0 498 Q 745.0 518 773.0 498" fill="none" stroke="#111827" stroke-width="5" stroke-linecap="round"/>
<rect x="659.0" y="552" width="172" height="96" rx="24" fill="#25636f"/>
<rect x="64" y="735" width="430" height="570" rx="18" fill="#eef9f0" stroke="#1e293b" stroke-width="4"/>
<rect x="88" y="761" width="382" height="92" rx="12" fill="#ffffff" stroke="#94a3b8" stroke-width="2"/>
<text x="106" y="797" font-family="Hiragino Sans, Yu Gothic, sans-serif" font-size="26" font-weight="700" fill="#0f3f46">図解</text>
<text x="106" y="840" font-family="Hiragino Sans, Yu Gothic, sans-serif" font-size="25" fill="#111827">結論の論点を三つに分ける</text>
<rect x="134" y="1045" width="56" height="110" fill="#25636f" opacity="0.35"/>
<rect x="212" y="1115" width="56" height="128" fill="#25636f" opacity="0.47"/>
<rect x="290" y="1045" width="56" height="146" fill="#25636f" opacity="0.59"/>
<rect x="368" y="1115" width="56" height="164" fill="#25636f" opacity="0.71"/>
<polyline points="126,1225 209,1175 294,1190 379,1115 462,1080" fill="none" stroke="#d9463e" stroke-width="7"/>
<rect x="530" y="735" width="430" height="570" rx="18" fill="#fff0f5" stroke="#1e293b" stroke-width="4"/>
<rect x="554" y="761" width="382" height="92" rx="12" fill="#ffffff" stroke="#94a3b8" stroke-width="2"/>
<text x="572" y="797" font-family="Hiragino Sans, Yu Gothic, sans-serif" font-size="26" font-weight="700" fill="#0f3f46">ミナミ</text>
<text x="572" y="840" font-family="Hiragino Sans, Yu Gothic, sans-serif" font-size="25" fill="#111827">買う前に、見る場所があるんです</text>
<text x="572" y="874" font-family="Hiragino Sans, Yu Gothic, sans-serif" font-size="25" fill="#111827">ね</text>
<circle cx="745.0" cy="1085" r="82" fill="#f5c7a9" stroke="#1f2937" stroke-width="4"/>
<path d="M 663.0 1063 Q 745.0 960 827.0 1063 L 817.0 1009 Q 745.0 940 673.0 1009 Z" fill="#262626"/>
<circle cx="717.0" cy="1079" r="7" fill="#111827"/><circle cx="773.0" cy="1079" r="7" fill="#111827"/>
<path d="M 717.0 1123 Q 745.0 1143 773.0 1123" fill="none" stroke="#111827" stroke-width="5" stroke-linecap="round"/>
<rect x="659.0" y="1177" width="172" height="96" rx="24" fill="#25636f"/>
</svg>