<svg xmlns="http://www.w3.org/2000/svg" width="1536" height="864" viewBox="0 0 1536 864">
<rect width="1536" height="864" fill="#f6f1e8"/>
<rect x="92" y="78" width="1352" height="708" rx="54" fill="#ffffff" opacity="0.78"/>
<circle cx="1260" cy="168" r="96" fill="#e6b84f" opacity="0.28"/>
<circle cx="230" cy="704" r="132" fill="#2f7d6d" opacity="0.18"/>
<rect x="210" y="210" width="170" height="270" rx="30" fill="#fff" stroke="#2f7d6d" stroke-width="12" opacity="0.95"/><circle cx="252" cy="260" r="11" fill="#2f7d6d" opacity="0.85"/><rect x="278" y="252" width="72" height="16" rx="8" fill="#425466" opacity="0.15"/><circle cx="252" cy="305" r="11" fill="#e6b84f" opacity="0.85"/><rect x="278" y="297" width="72" height="16" rx="8" fill="#425466" opacity="0.15"/><circle cx="252" cy="350" r="11" fill="#d86f4d" opacity="0.85"/><rect x="278" y="342" width="72" height="16" rx="8" fill="#425466" opacity="0.15"/><circle cx="252" cy="395" r="11" fill="#425466" opacity="0.85"/><rect x="278" y="387" width="72" height="16" rx="8" fill="#425466" opacity="0.15"/><rect x="470" y="210" width="170" height="270" rx="30" fill="#fff" stroke="#e6b84f" stroke-width="12" opacity="0.95"/><circle cx="512" cy="260" r="11" fill="#e6b84f" opacity="0.85"/><rect x="538" y="252" width="72" height="16" rx="8" fill="#425466" opacity="0.15"/><circle cx="512" cy="305" r="11" fill="#d86f4d" opacity="0.85"/><rect x="538" y="297" width="72" height="16" rx="8" fill="#425466" opacity="0.15"/><circle cx="512" cy="350" r="11" fill="#425466" opacity="0.85"/><rect x="538" y="342" width="72" height="16" rx="8" fill="#425466" opacity="0.15"/><circle cx="512" cy="395" r="11" fill="#2f7d6d" opacity="0.85"/><rect x="538" y="387" width="72" height="16" rx="8" fill="#425466" opacity="0.15"/><rect x="730" y="210" width="170" height="270" rx="30" fill="#fff" stroke="#d86f4d" stroke-width="12" opacity="0.95"/><circle cx="772" cy="260" r="11" fill="#d86f4d" opacity="0.85"/><rect x="798" y="252" width="72" height="16" rx="8" fill="#425466" opacity="0.15"/><circle cx="772" cy="305" r="11" fill="#425466" opacity="0.85"/><rect x="798" y="297" width="72" height="16" rx="8" fill="#425466" opacity="0.15"/><circle cx="772" cy="350" r="11" fill="#2f7d6d" opacity="0.85"/><rect x="798" y="342" width="72" height="16" rx="8" fill="#425466" opacity="0.15"/><circle cx="772" cy="395" r="11" fill="#2f7d6d" opacity="0.85"/><rect x="798" y="387" width="72" height="16" rx="8" fill="#425466" opacity="0.15"/><rect x="990" y="210" width="170" height="270" rx="30" fill="#fff" stroke="#425466" stroke-width="12" opacity="0.95"/><circle cx="1032" cy="260" r="11" fill="#425466" opacity="0.85"/><rect x="1058" y="252" width="72" height="16" rx="8" fill="#425466" opacity="0.15"/><circle cx="1032" cy="305" r="11" fill="#2f7d6d" opacity="0.85"/><rect x="1058" y="297" width="72" height="16" rx="8" fill="#425466" opacity="0.15"/><circle cx="1032" cy="350" r="11" fill="#2f7d6d" opacity="0.85"/><rect x="1058" y="342" width="72" height="16" rx="8" fill="#425466" opacity="0.15"/><circle cx="1032" cy="395" r="11" fill="#e6b84f" opacity="0.85"/><rect x="1058" y="387" width="72" height="16" rx="8" fill="#425466" opacity="0.15"/><rect x="1250" y="210" width="170" height="270" rx="30" fill="#fff" stroke="#2f7d6d" stroke-width="12" opacity="0.95"/><circle cx="1292" cy="260" r="11" fill="#2f7d6d" opacity="0.85"/><rect x="1318" y="252" width="72" height="16" rx="8" fill="#425466" opacity="0.15"/><circle cx="1292" cy="305" r="11" fill="#2f7d6d" opacity="0.85"/><rect x="1318" y="297" width="72" height="16" rx="8" fill="#425466" opacity="0.15"/><circle cx="1292" cy="350" r="11" fill="#e6b84f" opacity="0.85"/><rect x="1318" y="342" width="72" height="16" rx="8" fill="#425466" opacity="0.15"/><circle cx="1292" cy="395" r="11" fill="#d86f4d" opacity="0.85"/><rect x="1318" y="387" width="72" height="16" rx="8" fill="#425466" opacity="0.15"/><path d="M360 650 h190 l-34 92 h-122 z" fill="#2f7d6d" opacity="0.70"/><ellipse cx="455" cy="650" rx="95" ry="28" fill="#2f7d6d" opacity="0.88"/><circle cx="410" cy="608" r="13" fill="#fff7df" opacity="0.9"/><circle cx="432" cy="616" r="13" fill="#fff7df" opacity="0.9"/><circle cx="454" cy="607" r="13" fill="#fff7df" opacity="0.9"/><circle cx="476" cy="608" r="13" fill="#fff7df" opacity="0.9"/><circle cx="498" cy="607" r="13" fill="#fff7df" opacity="0.9"/><path d="M650 650 h190 l-34 92 h-122 z" fill="#e6b84f" opacity="0.70"/><ellipse cx="745" cy="650" rx="95" ry="28" fill="#e6b84f" opacity="0.88"/><circle cx="700" cy="604" r="13" fill="#fff7df" opacity="0.9"/><circle cx="722" cy="624" r="13" fill="#fff7df" opacity="0.9"/><circle cx="744" cy="608" r="13" fill="#fff7df" opacity="0.9"/><circle cx="766" cy="628" r="13" fill="#fff7df" opacity="0.9"/><circle cx="788" cy="611" r="13" fill="#fff7df" opacity="0.9"/><path d="M940 650 h190 l-34 92 h-122 z" fill="#d86f4d" opacity="0.70"/><ellipse cx="1035" cy="650" rx="95" ry="28" fill="#d86f4d" opacity="0.88"/><circle cx="990" cy="607" r="13" fill="#fff7df" opacity="0.9"/><circle cx="1012" cy="627" r="13" fill="#fff7df" opacity="0.9"/><circle cx="1034" cy="610" r="13" fill="#fff7df" opacity="0.9"/><circle cx="1056" cy="618" r="13" fill="#fff7df" opacity="0.9"/><circle cx="1078" cy="616" r="13" fill="#fff7df" opacity="0.9"/><path d="M250 560 C420 500 540 540 670 490 S930 430 1135 510 S1280 570 1360 526" fill="none" stroke="#425466" stroke-width="14" stroke-linecap="round" opacity="0.35"/></svg>