<svg xmlns="http://www.w3.org/2000/svg" width="1200" height="700" viewBox="0 0 1200 700">
    <defs><marker id="arrow" markerWidth="8" markerHeight="8" refX="5" refY="3" orient="auto"><path d="M0 0 L6 3 L0 6 Z" fill="#111"/></marker></defs>
    <rect width="100%" height="100%" fill="#fffdf9"/><pattern id="dots" x="0" y="0" width="16" height="16" patternUnits="userSpaceOnUse"><circle cx="2" cy="2" r="1.6" fill="#d8d8d8"/></pattern><rect width="100%" height="100%" fill="url(#dots)" opacity=".55"/><rect x="18.0" y="46" width="364.0" height="608" fill="#fff" stroke="#111" stroke-width="6"/><rect x="418.0" y="46" width="364.0" height="608" fill="#fff" stroke="#111" stroke-width="6"/><rect x="818.0" y="46" width="364.0" height="608" fill="#fff" stroke="#111" stroke-width="6"/><line x1="200.0" y1="350.0" x2="40" y2="80" stroke="#ddd" stroke-width="4"/><line x1="200.0" y1="350.0" x2="72" y2="130" stroke="#ddd" stroke-width="4"/><line x1="200.0" y1="350.0" x2="104" y2="180" stroke="#ddd" stroke-width="4"/><line x1="200.0" y1="350.0" x2="136" y2="230" stroke="#ddd" stroke-width="4"/><line x1="200.0" y1="350.0" x2="168" y2="280" stroke="#ddd" stroke-width="4"/><line x1="200.0" y1="350.0" x2="200" y2="330" stroke="#ddd" stroke-width="4"/><line x1="200.0" y1="350.0" x2="232" y2="380" stroke="#ddd" stroke-width="4"/><line x1="200.0" y1="350.0" x2="264" y2="430" stroke="#ddd" stroke-width="4"/><line x1="200.0" y1="350.0" x2="296" y2="80" stroke="#ddd" stroke-width="4"/><line x1="200.0" y1="350.0" x2="328" y2="130" stroke="#ddd" stroke-width="4"/><line x1="200.0" y1="350.0" x2="360" y2="180" stroke="#ddd" stroke-width="4"/><line x1="200.0" y1="350.0" x2="392" y2="230" stroke="#ddd" stroke-width="4"/><line x1="200.0" y1="350.0" x2="424" y2="280" stroke="#ddd" stroke-width="4"/><line x1="200.0" y1="350.0" x2="456" y2="330" stroke="#ddd" stroke-width="4"/><line x1="200.0" y1="350.0" x2="488" y2="380" stroke="#ddd" stroke-width="4"/><line x1="200.0" y1="350.0" x2="520" y2="430" stroke="#ddd" stroke-width="4"/><line x1="200.0" y1="350.0" x2="552" y2="80" stroke="#ddd" stroke-width="4"/><line x1="200.0" y1="350.0" x2="584" y2="130" stroke="#ddd" stroke-width="4"/>
    
    <g transform="translate(95,180)">
      <path d="M44 86 C18 94 8 124 8 162 L104 162 C104 125 92 96 66 86 Z" fill="#27ae60" stroke="#111" stroke-width="4"/>
      <path d="M24 23 C31 3 79 0 89 35 C97 65 83 93 56 96 C27 99 12 69 24 23 Z" fill="#f7d3b7" stroke="#111" stroke-width="4"/>
      <path d="M22 42 C28 12 58 1 82 18 C61 17 46 27 38 46 C32 40 27 40 22 42 Z" fill="#161616" stroke="#111" stroke-width="3"/>
      <path d="M79 20 C99 33 98 61 86 78 C87 55 81 42 66 34 C72 31 76 26 79 20 Z" fill="#161616" stroke="#111" stroke-width="3"/>
      <ellipse cx="42" cy="61" rx="8" ry="11" fill="#fff" stroke="#111" stroke-width="3"/>
      <ellipse cx="68" cy="61" rx="8" ry="11" fill="#fff" stroke="#111" stroke-width="3"/>
      <circle cx="44" cy="64" r="4" fill="#111"/><circle cx="70" cy="64" r="4" fill="#111"/>
      <circle cx="41" cy="58" r="2" fill="#fff"/><circle cx="67" cy="58" r="2" fill="#fff"/>
      <path d="M137 256 Q149 264 161 256" fill="none" stroke="#111" stroke-width="3" stroke-linecap="round"/>
      <path d="M18 108 C-4 118 -10 138 2 153" fill="none" stroke="#111" stroke-width="5" stroke-linecap="round"/>
      <path d="M94 108 C121 101 130 119 124 143" fill="none" stroke="#111" stroke-width="5" stroke-linecap="round"/>
    </g><g><path d="M215 155 h190 q18 0 18 18 v54 q0 18 -18 18 h-95 l-32 26 9-26 h-72 q-18 0 -18-18 v-54 q0-18 18-18z" fill="#fff" stroke="#111" stroke-width="4"/><text x="235" y="191" font-family="sans-serif" font-size="20" font-weight="700" fill="#333">相談を受ける</text></g>
    <g transform="translate(440.0,120)"><rect x="0" y="110" width="290" height="170" rx="16" fill="#f7f7f7" stroke="#111" stroke-width="5"/><rect x="35" y="145" width="220" height="92" rx="8" fill="#fff" stroke="#111" stroke-width="4"/><path d="M0 280 L290 280 L250 325 L40 325 Z" fill="#f2994a" stroke="#111" stroke-width="5"/></g>
    
    <g transform="translate(705.0,205)">
      <rect x="10" y="42" width="100" height="82" rx="14" fill="#fff" stroke="#111" stroke-width="4"/>
      <path d="M60 18 L60 42" stroke="#111" stroke-width="4"/><circle cx="60" cy="14" r="8" fill="#27ae60" stroke="#111" stroke-width="4"/>
      <circle cx="40" cy="77" r="10" fill="#fff" stroke="#111" stroke-width="4"/><circle cx="80" cy="77" r="10" fill="#fff" stroke="#111" stroke-width="4"/>
      <circle cx="42" cy="78" r="4" fill="#27ae60"/><circle cx="82" cy="78" r="4" fill="#f2994a"/>
      <path d="M43 101 Q60 112 78 101" fill="none" stroke="#111" stroke-width="4" stroke-linecap="round"/>
      <path d="M10 72 L-8 60 M110 72 L128 60" stroke="#111" stroke-width="4" stroke-linecap="round"/>
    </g><g><path d="M480 72 h190 q18 0 18 18 v54 q0 18 -18 18 h-95 l-32 26 9-26 h-72 q-18 0 -18-18 v-54 q0-18 18-18z" fill="#fff" stroke="#111" stroke-width="4"/><text x="500" y="108" font-family="sans-serif" font-size="20" font-weight="700" fill="#333">AIが下書き</text></g><rect x="470.0" y="330" width="70" height="46" rx="8" fill="#fff" stroke="#111" stroke-width="4"/><path d="M540.0 353 H562.0" stroke="#111" stroke-width="4" marker-end="url(#arrow)"/><rect x="562.0" y="405" width="70" height="46" rx="8" fill="#fff" stroke="#111" stroke-width="4"/><path d="M632.0 428 H654.0" stroke="#111" stroke-width="4" marker-end="url(#arrow)"/><rect x="654.0" y="330" width="70" height="46" rx="8" fill="#fff" stroke="#111" stroke-width="4"/><path d="M724.0 353 H746.0" stroke="#111" stroke-width="4" marker-end="url(#arrow)"/>
    <g><path d="M870 150 l18 18 l42 -44" fill="none" stroke="#27ae60" stroke-width="8" stroke-linecap="round" stroke-linejoin="round"/><line x1="940" y1="164" x2="1080" y2="164" stroke="#111" stroke-width="5"/><path d="M870 212 l18 18 l42 -44" fill="none" stroke="#27ae60" stroke-width="8" stroke-linecap="round" stroke-linejoin="round"/><line x1="940" y1="226" x2="1080" y2="226" stroke="#111" stroke-width="5"/><path d="M870 274 l18 18 l42 -44" fill="none" stroke="#27ae60" stroke-width="8" stroke-linecap="round" stroke-linejoin="round"/><line x1="940" y1="288" x2="1080" y2="288" stroke="#111" stroke-width="5"/></g><g><line x1="1075" y1="530" x2="1117.0" y2="530.0" stroke="#c9c9c9" stroke-width="3"/><line x1="1075" y1="530" x2="1135.6217354108057" y2="565.0000742253821" stroke="#c9c9c9" stroke-width="3"/><line x1="1075" y1="530" x2="1095.999910929447" y2="566.3731183837089" stroke="#c9c9c9" stroke-width="3"/><line x1="1075" y1="530" x2="1074.9997428756428" y2="599.9999999995277" stroke="#c9c9c9" stroke-width="3"/><line x1="1075" y1="530" x2="1053.9998218592716" y2="566.3729641087673" stroke="#c9c9c9" stroke-width="3"/><line x1="1075" y1="530" x2="1014.3780074659276" y2="564.999628872302" stroke="#c9c9c9" stroke-width="3"/><line x1="1075" y1="530" x2="1033.0000000011335" y2="529.9996914507714" stroke="#c9c9c9" stroke-width="3"/><line x1="1075" y1="530" x2="1014.3785217157326" y2="494.9994804234265" stroke="#c9c9c9" stroke-width="3"/><line x1="1075" y1="530" x2="1054.000356282968" y2="493.6267273433127" stroke="#c9c9c9" stroke-width="3"/><line x1="1075" y1="530" x2="1075.0007713730718" y2="460.0000000042501" stroke="#c9c9c9" stroke-width="3"/><line x1="1075" y1="530" x2="1096.0004453508764" y2="493.62719016813725" stroke="#c9c9c9" stroke-width="3"/><line x1="1075" y1="530" x2="1135.6222496540672" y2="495.0008164826672" stroke="#c9c9c9" stroke-width="3"/><circle cx="1075" cy="530" r="22" fill="#f2994a" stroke="#111" stroke-width="4"/></g><g><path d="M840 70 h190 q18 0 18 18 v54 q0 18 -18 18 h-95 l-32 26 9-26 h-72 q-18 0 -18-18 v-54 q0-18 18-18z" fill="#fff" stroke="#111" stroke-width="4"/><text x="860" y="106" font-family="sans-serif" font-size="20" font-weight="700" fill="#333">人が確認</text></g>
    </svg>