<svg xmlns="http://www.w3.org/2000/svg" width="1280" height="720" viewBox="0 0 1280 720">
    <rect width="1280" height="720" fill="#eaf5fb"/>
    
    <path d="M-40 640 C250 560,450 705,720 610 S1050 565,1320 670" fill="none" stroke="#e97862" stroke-width="38" opacity="0.22"/>
    <path d="M600 105 L635 138 L600 171 M615 250 L650 283 L615 316 M600 425 L635 458 L600 491" fill="none" stroke="#222" stroke-width="8" stroke-linecap="round" stroke-linejoin="round" opacity="0.55"/>
    <rect x="80" y="70" width="500" height="520" rx="12" fill="#fff" stroke="#222" stroke-width="8"/><rect x="660" y="70" width="540" height="520" rx="12" fill="#fff" stroke="#222" stroke-width="8"/>
    <g>
    <circle cx="245" cy="185" r="32.3" fill="#fff" stroke="#222" stroke-width="6.6499999999999995"/>
    <path d="M224.1 181.2 Q245 158.4 267.8 182.15" fill="none" stroke="#222" stroke-width="4.75" stroke-linecap="round"/>
    <circle cx="235.5" cy="186.9" r="2.8499999999999996" fill="#222"/><circle cx="257.35" cy="186.9" r="2.8499999999999996" fill="#222"/>
    <path d="M236.45 200.2 Q246.9 207.8 262.1 199.25" fill="none" stroke="#222" stroke-width="3.8" stroke-linecap="round"/>
    <path d="M202.25 297.1 Q245 246.75 290.6 297.1 L300.1 376.9 L189.9 376.9 Z" fill="#2f78a8" stroke="#222" stroke-width="6.6499999999999995"/>
    <path d="M216.5 259.1 C161.4 264.8,144.3 306.6,132.9 335.1" fill="none" stroke="#222" stroke-width="6.6499999999999995" stroke-linecap="round"/>
    <path d="M271.6 249.6 C309.6 272.4,336.2 268.6,360.9 253.39999999999998" fill="none" stroke="#222" stroke-width="6.6499999999999995" stroke-linecap="round"/>
    </g>
    <g>
    <rect x="776.0" y="178.6" width="108.0" height="82.8" rx="18.0" fill="#fff" stroke="#222" stroke-width="6.3"/>
    <circle cx="807.5" cy="212.8" r="7.2" fill="#e97862"/><circle cx="852.5" cy="212.8" r="7.2" fill="#e97862"/>
    <path d="M813.8 236.2 Q830 247.0 848.0 236.2" fill="none" stroke="#222" stroke-width="3.6" stroke-linecap="round"/>
    <path d="M830 178.6 L830 146.2" stroke="#222" stroke-width="5.4" stroke-linecap="round"/><circle cx="830" cy="137.2" r="9.0" fill="#e97862" stroke="#222" stroke-width="4.5"/>
    </g><g><rect x="755" y="330" width="120" height="70" rx="12" fill="#fff" stroke="#222" stroke-width="7"/><rect x="965" y="330" width="120" height="70" rx="12" fill="#fff" stroke="#222" stroke-width="7"/><rect x="1175" y="330" width="120" height="70" rx="12" fill="#fff" stroke="#222" stroke-width="7"/><path d="M885 365 H953 M1095 365 H1163" stroke="#222" stroke-width="7" stroke-linecap="round"/><path d="M945 350 l18 15 l-18 15 M1155 350 l18 15 l-18 15" fill="none" stroke="#222" stroke-width="7" stroke-linecap="round" stroke-linejoin="round"/><path d="M1025 446 l54 54 l-54 54 l-54 -54 Z" fill="#e97862" stroke="#222" stroke-width="7"/></g><g><path d="M198 420 H442 Q470 420 470 448 V507 Q470 535 442 535 H248 L214 569 L222 535 H198 Q170 535 170 507 V448 Q170 420 198 420 Z" fill="#fff" stroke="#222" stroke-width="7"/><path d="M208 456 H432 M208 486 H390 M208 516 H412" stroke="#777" stroke-width="10" stroke-linecap="round" opacity="0.45"/></g><g><rect x="720" y="105" width="280" height="155" rx="16" fill="#fff" stroke="#222" stroke-width="8"/><rect x="746" y="131" width="228" height="103" rx="10" fill="#f7f7f7" stroke="#222" stroke-width="4"/><path d="M685 266 H1035 L1008 304 H712 Z" fill="#e97862" stroke="#222" stroke-width="8"/></g>
    <rect x="18" y="18" width="1244" height="684" rx="22" fill="none" stroke="#222" stroke-width="8" opacity="0.82"/>
    <path d="M38 40 L118 40 M38 66 L90 66" stroke="#222" stroke-width="6" stroke-linecap="round" opacity="0.25"/>
    </svg>